# xmcd
#
# Track frame offsets: 
#        150
#        15216
#        30836
#        51886
#        68977
#        91974
#        108317
#        126987
#        143571
#        157127
#
# Disc length: 2430 seconds
#
# Revision: 0
# Processed by: cddbd v1.5.2PL0 Copyright (c) Steve Scherf et al.
# Submitted via: ExactAudioCopy v0.99pb1
#
DISCID=79097c0a
DTITLE=Lonelady - Nerve Up
DYEAR=2009
DGENRE=Easy Listening
TTITLE0=If Not Now
TTITLE1=Intuition
TTITLE2=Nerve Up
TTITLE3=Early The Haste Comes
TTITLE4=Marble
TTITLE5=Immaterial
TTITLE6=Cattletears
TTITLE7=Have No Past
TTITLE8=Army
TTITLE9=Fear No More
EXTD=
EXTT0=
EXTT1=
EXTT2=
EXTT3=
EXTT4=
EXTT5=
EXTT6=
EXTT7=
EXTT8=
EXTT9=
PLAYORDER=
